<svg xmlns="http://www.w3.org/2000/svg" xmlns:xlink="http://www.w3.org/1999/xlink" width="1080" zoomAndPan="magnify" viewBox="0 0 810 1439.999935" height="1920" preserveAspectRatio="xMidYMid meet" version="1.0"><defs><clipPath id="d20a9296a7"><path d="M 376 461.15625 L 434 461.15625 L 434 492 L 376 492 Z M 376 461.15625 " clip-rule="nonzero"/></clipPath><clipPath id="24e93725bb"><path d="M 348 461.15625 L 380 461.15625 L 380 492 L 348 492 Z M 348 461.15625 " clip-rule="nonzero"/></clipPath><clipPath id="cf6707894a"><path d="M 430 461.15625 L 462 461.15625 L 462 492 L 430 492 Z M 430 461.15625 " clip-rule="nonzero"/></clipPath><clipPath id="74e13305da"><path d="M 112.339844 653 L 143 653 L 143 984 L 112.339844 984 Z M 112.339844 653 " clip-rule="nonzero"/></clipPath><clipPath id="81f654c2ca"><path d="M 666 653 L 697.339844 653 L 697.339844 984 L 666 984 Z M 666 653 " clip-rule="nonzero"/></clipPath><clipPath id="b3d05bc18a"><path d="M 136 978 L 673 978 L 673 1008.65625 L 136 1008.65625 Z M 136 978 " clip-rule="nonzero"/></clipPath></defs><path fill="#e9dbbe" d="M 411.332031 471.476562 L 372.4375 470.921875 L 322.289062 516.277344 L 230.1875 569.941406 L 224.117188 616.96875 L 151.402344 651.796875 L 132.121094 680.382812 L 136.746094 978 L 150.675781 991.097656 L 648.636719 991.652344 L 683.242188 972.148438 L 677.835938 669.90625 L 609.078125 621.375 L 592.03125 621.375 L 575.03125 556.289062 L 521.9375 544.25 L 487.390625 519.117188 L 433.0625 463.902344 Z M 411.332031 471.476562 " fill-opacity="1" fill-rule="evenodd"/><path fill="#8b806c" d="M 418.460938 471.753906 L 379.289062 470.191406 L 337.613281 503.796875 L 261.671875 551.21875 L 242.28125 565.984375 L 215.757812 610.117188 L 183.550781 636.695312 L 157.308594 673.140625 L 334.050781 840.25 L 385.03125 808.769531 L 426.597656 815.511719 L 465.046875 830 L 503.769531 817.574219 L 572.582031 747.695312 L 662.121094 666.0625 L 649.753906 638.308594 L 610.191406 630.902344 L 600.554688 621.375 L 585.457031 608.164062 L 575.535156 549.765625 L 526.058594 549.269531 L 461.035156 491.816406 Z M 418.460938 471.753906 " fill-opacity="1" fill-rule="evenodd"/><path fill="#8b806c" d="M 193.132812 955.320312 L 616.597656 955.320312 L 616.597656 985.96875 L 193.132812 985.96875 Z M 193.132812 955.320312 " fill-opacity="1" fill-rule="nonzero"/><path fill="#ffffff" d="M 230.1875 557.179688 L 575.03125 556.289062 L 579.941406 732.367188 L 501.761719 819.800781 L 473.234375 835.121094 L 432.222656 809.324219 L 373.554688 808.652344 L 346.8125 836.6875 L 307.972656 819.800781 L 265.234375 776.671875 L 229.796875 729.140625 Z M 230.1875 557.179688 " fill-opacity="1" fill-rule="evenodd"/><g clip-path="url(#d20a9296a7)"><path fill="#000000" d="M 376.617188 461.222656 L 433.0625 461.222656 L 433.0625 491.867188 L 376.617188 491.867188 Z M 376.617188 461.222656 " fill-opacity="1" fill-rule="nonzero"/></g><g clip-path="url(#24e93725bb)"><path fill="#000000" d="M 348.644531 461.167969 L 379.289062 461.167969 L 379.289062 491.816406 L 348.644531 491.816406 Z M 348.644531 461.167969 " fill-opacity="1" fill-rule="nonzero"/></g><path fill="#000000" d="M 322.289062 488.472656 L 352.933594 488.472656 L 352.933594 519.117188 L 322.289062 519.117188 Z M 322.289062 488.472656 " fill-opacity="1" fill-rule="nonzero"/><path fill="#000000" d="M 262.058594 513.601562 L 324.070312 513.601562 L 324.070312 544.25 L 262.058594 544.25 Z M 262.058594 513.601562 " fill-opacity="1" fill-rule="nonzero"/><g clip-path="url(#cf6707894a)"><path fill="#000000" d="M 430.332031 461.167969 L 461.035156 461.167969 L 461.035156 491.816406 L 430.332031 491.816406 Z M 430.332031 461.167969 " fill-opacity="1" fill-rule="nonzero"/></g><path fill="#000000" d="M 456.738281 488.472656 L 487.382812 488.472656 L 487.382812 519.117188 L 456.738281 519.117188 Z M 456.738281 488.472656 " fill-opacity="1" fill-rule="nonzero"/><path fill="#000000" d="M 485.550781 513.601562 L 547.5625 513.601562 L 547.5625 544.25 L 485.550781 544.25 Z M 485.550781 513.601562 " fill-opacity="1" fill-rule="nonzero"/><path fill="#000000" d="M 215.035156 539.289062 L 594.703125 539.289062 L 594.703125 569.9375 L 215.035156 569.9375 Z M 215.035156 539.289062 " fill-opacity="1" fill-rule="nonzero"/><path fill="#000000" d="M 245.730469 564.925781 L 245.730469 750.035156 L 215.085938 733.429688 L 215.085938 564.925781 Z M 245.730469 564.925781 " fill-opacity="1" fill-rule="evenodd"/><path fill="#000000" d="M 594.644531 564.925781 L 595.257812 729.140625 L 564 750.035156 L 564 564.925781 Z M 594.644531 564.925781 " fill-opacity="1" fill-rule="evenodd"/><path fill="#000000" d="M 284.738281 603.652344 L 432.675781 603.652344 L 432.675781 634.355469 L 284.738281 634.355469 Z M 284.738281 603.652344 " fill-opacity="1" fill-rule="nonzero"/><path fill="#000000" d="M 284.738281 654.191406 L 525.222656 654.191406 L 525.222656 684.898438 L 284.738281 684.898438 Z M 284.738281 654.191406 " fill-opacity="1" fill-rule="nonzero"/><path fill="#000000" d="M 284.738281 701.949219 L 467.835938 701.949219 L 467.835938 732.59375 L 284.738281 732.59375 Z M 284.738281 701.949219 " fill-opacity="1" fill-rule="nonzero"/><path fill="#000000" d="M 183.550781 606.046875 L 215.867188 606.046875 L 215.867188 636.695312 L 183.550781 636.695312 Z M 183.550781 606.046875 " fill-opacity="1" fill-rule="nonzero"/><path fill="#000000" d="M 137.527344 628.78125 L 190.242188 628.78125 L 190.242188 659.429688 L 137.527344 659.429688 Z M 137.527344 628.78125 " fill-opacity="1" fill-rule="nonzero"/><g clip-path="url(#74e13305da)"><path fill="#000000" d="M 112.339844 653.300781 L 142.984375 653.300781 L 142.984375 983.902344 L 112.339844 983.902344 Z M 112.339844 653.300781 " fill-opacity="1" fill-rule="nonzero"/></g><path fill="#000000" d="M 592.03125 606.046875 L 626.1875 606.046875 L 626.1875 636.695312 L 592.03125 636.695312 Z M 592.03125 606.046875 " fill-opacity="1" fill-rule="nonzero"/><path fill="#000000" d="M 619.4375 628.78125 L 672.203125 628.78125 L 672.203125 659.429688 L 619.4375 659.429688 Z M 619.4375 628.78125 " fill-opacity="1" fill-rule="nonzero"/><g clip-path="url(#81f654c2ca)"><path fill="#000000" d="M 666.695312 653.300781 L 697.339844 653.300781 L 697.339844 983.902344 L 666.695312 983.902344 Z M 666.695312 653.300781 " fill-opacity="1" fill-rule="nonzero"/></g><path fill="#000000" d="M 358.84375 794.167969 L 450.835938 794.167969 L 450.835938 824.8125 L 358.84375 824.8125 Z M 358.84375 794.167969 " fill-opacity="1" fill-rule="nonzero"/><path fill="#000000" d="M 141.933594 657.816406 L 172.636719 657.816406 L 172.636719 688.460938 L 141.933594 688.460938 Z M 141.933594 657.816406 " fill-opacity="1" fill-rule="nonzero"/><path fill="#000000" d="M 170.011719 685.679688 L 200.714844 685.679688 L 200.714844 716.324219 L 170.011719 716.324219 Z M 170.011719 685.679688 " fill-opacity="1" fill-rule="nonzero"/><path fill="#000000" d="M 199.09375 713.761719 L 229.796875 713.761719 L 229.796875 744.464844 L 199.09375 744.464844 Z M 199.09375 713.761719 " fill-opacity="1" fill-rule="nonzero"/><path fill="#000000" d="M 228.402344 738.277344 L 259.046875 738.277344 L 259.046875 768.925781 L 228.402344 768.925781 Z M 228.402344 738.277344 " fill-opacity="1" fill-rule="nonzero"/><path fill="#000000" d="M 256.710938 765.75 L 287.355469 765.75 L 287.355469 796.394531 L 256.710938 796.394531 Z M 256.710938 765.75 " fill-opacity="1" fill-rule="nonzero"/><path fill="#000000" d="M 284.683594 793.332031 L 315.386719 793.332031 L 315.386719 823.980469 L 284.683594 823.980469 Z M 284.683594 793.332031 " fill-opacity="1" fill-rule="nonzero"/><path fill="#000000" d="M 307.972656 819.800781 L 364.972656 819.800781 L 364.972656 850.449219 L 307.972656 850.449219 Z M 307.972656 819.800781 " fill-opacity="1" fill-rule="nonzero"/><path fill="#000000" d="M 282.058594 846.605469 L 312.703125 846.605469 L 312.703125 877.3125 L 282.058594 877.3125 Z M 282.058594 846.605469 " fill-opacity="1" fill-rule="nonzero"/><path fill="#000000" d="M 255.039062 872.957031 L 285.742188 872.957031 L 285.742188 903.664062 L 255.039062 903.664062 Z M 255.039062 872.957031 " fill-opacity="1" fill-rule="nonzero"/><path fill="#000000" d="M 229.015625 898.375 L 259.664062 898.375 L 259.664062 929.078125 L 229.015625 929.078125 Z M 229.015625 898.375 " fill-opacity="1" fill-rule="nonzero"/><path fill="#000000" d="M 200.546875 924.617188 L 231.195312 924.617188 L 231.195312 955.261719 L 200.546875 955.261719 Z M 200.546875 924.617188 " fill-opacity="1" fill-rule="nonzero"/><path fill="#000000" d="M 172.6875 949.132812 L 203.390625 949.132812 L 203.390625 979.839844 L 172.6875 979.839844 Z M 172.6875 949.132812 " fill-opacity="1" fill-rule="nonzero"/><path fill="#000000" d="M 637.101562 657.816406 L 667.746094 657.816406 L 667.746094 688.460938 L 637.101562 688.460938 Z M 637.101562 657.816406 " fill-opacity="1" fill-rule="nonzero"/><path fill="#000000" d="M 608.523438 685.007812 L 639.226562 685.007812 L 639.226562 715.652344 L 608.523438 715.652344 Z M 608.523438 685.007812 " fill-opacity="1" fill-rule="nonzero"/><path fill="#000000" d="M 579.941406 713.761719 L 610.585938 713.761719 L 610.585938 744.464844 L 579.941406 744.464844 Z M 579.941406 713.761719 " fill-opacity="1" fill-rule="nonzero"/><path fill="#000000" d="M 550.632812 738.277344 L 581.335938 738.277344 L 581.335938 768.925781 L 550.632812 768.925781 Z M 550.632812 738.277344 " fill-opacity="1" fill-rule="nonzero"/><path fill="#000000" d="M 522.382812 765.75 L 553.027344 765.75 L 553.027344 796.394531 L 522.382812 796.394531 Z M 522.382812 765.75 " fill-opacity="1" fill-rule="nonzero"/><path fill="#000000" d="M 494.351562 793.332031 L 525 793.332031 L 525 823.980469 L 494.351562 823.980469 Z M 494.351562 793.332031 " fill-opacity="1" fill-rule="nonzero"/><path fill="#000000" d="M 444.707031 819.800781 L 501.761719 819.800781 L 501.761719 850.449219 L 444.707031 850.449219 Z M 444.707031 819.800781 " fill-opacity="1" fill-rule="nonzero"/><path fill="#000000" d="M 496.96875 846.605469 L 527.671875 846.605469 L 527.671875 877.3125 L 496.96875 877.3125 Z M 496.96875 846.605469 " fill-opacity="1" fill-rule="nonzero"/><path fill="#000000" d="M 523.996094 872.957031 L 554.640625 872.957031 L 554.640625 903.664062 L 523.996094 903.664062 Z M 523.996094 872.957031 " fill-opacity="1" fill-rule="nonzero"/><path fill="#000000" d="M 550.019531 898.375 L 580.722656 898.375 L 580.722656 929.078125 L 550.019531 929.078125 Z M 550.019531 898.375 " fill-opacity="1" fill-rule="nonzero"/><path fill="#000000" d="M 578.542969 924.617188 L 609.191406 924.617188 L 609.191406 955.261719 L 578.542969 955.261719 Z M 578.542969 924.617188 " fill-opacity="1" fill-rule="nonzero"/><path fill="#000000" d="M 606.347656 949.132812 L 636.992188 949.132812 L 636.992188 979.839844 L 606.347656 979.839844 Z M 606.347656 949.132812 " fill-opacity="1" fill-rule="nonzero"/><g clip-path="url(#b3d05bc18a)"><path fill="#000000" d="M 136.746094 978 L 672.984375 978 L 672.984375 1008.644531 L 136.746094 1008.644531 Z M 136.746094 978 " fill-opacity="1" fill-rule="nonzero"/></g></svg>