<svg xmlns="http://www.w3.org/2000/svg" xmlns:xlink="http://www.w3.org/1999/xlink" width="1080" zoomAndPan="magnify" viewBox="0 0 810 1439.999935" height="1920" preserveAspectRatio="xMidYMid meet" version="1.0"><defs><clipPath id="f15ad43a97"><path d="M 81 424.535156 L 749.25 424.535156 L 749.25 1064.285156 L 81 1064.285156 Z M 81 424.535156 " clip-rule="nonzero"/></clipPath><clipPath id="4a9c34c160"><path d="M 81 424.535156 L 717 424.535156 L 717 1043 L 81 1043 Z M 81 424.535156 " clip-rule="nonzero"/></clipPath><clipPath id="15f62005ad"><path d="M 97 915 L 749.25 915 L 749.25 1064.285156 L 97 1064.285156 Z M 97 915 " clip-rule="nonzero"/></clipPath></defs><g clip-path="url(#f15ad43a97)"><path fill="#ffffff" d="M 221.054688 445.164062 L 256.695312 445.164062 L 256.695312 424.535156 L 465.621094 473.90625 L 465.113281 491.292969 L 483.414062 491.292969 L 483.414062 506.347656 L 676.570312 550.546875 L 677.886719 568.441406 C 681.4375 568.441406 686.660156 568.441406 697.609375 568.441406 L 697.609375 587.449219 L 716.925781 587.449219 L 716.925781 931.125 L 732.589844 931.125 L 732.589844 948.207031 L 749.066406 948.207031 L 749.066406 965.746094 L 732.589844 965.746094 L 732.589844 979.125 L 716.925781 979.125 L 716.925781 990.226562 L 697.609375 990.226562 L 697.609375 1009.285156 L 679.410156 1009.285156 L 679.410156 1023.175781 L 658.875 1023.226562 L 658.925781 1042.640625 C 646.910156 1042.640625 635.050781 1042.691406 623.035156 1042.691406 C 623.035156 1045.78125 622.882812 1037.925781 623.386719 1064.285156 L 97.40625 934.773438 L 97.40625 897.617188 L 81.132812 897.617188 L 81.132812 564.488281 L 97.40625 564.488281 L 97.40625 548.316406 L 115.453125 548.316406 L 115.503906 547 L 115.554688 545.175781 L 117.9375 545.734375 L 155.050781 554.652344 L 155.050781 508.78125 L 173.402344 508.78125 L 173.402344 491.089844 L 190.6875 491.089844 L 189.878906 471.878906 L 221.105469 479.277344 L 221.105469 468.179688 Z M 221.054688 445.164062 " fill-opacity="1" fill-rule="evenodd"/></g><path fill="#386e9c" d="M 553.425781 990.429688 L 131.726562 884.589844 L 131.726562 868.777344 L 115.808594 865.175781 L 115.808594 847.941406 L 97.40625 843.226562 L 97.40625 878.8125 L 115.910156 883.730469 L 115.910156 901.773438 L 606.203125 1021.046875 L 606.203125 1003 L 588.964844 1003 L 588.964844 721.066406 L 570.917969 721.066406 L 570.003906 975.933594 L 553.425781 971.523438 Z M 553.425781 990.429688 " fill-opacity="1" fill-rule="evenodd"/><path fill="#a6effe" d="M 146.023438 589.070312 L 521.691406 679.347656 L 520.929688 696.128906 L 538.773438 696.128906 L 538.773438 715.085938 L 554.847656 715.085938 L 554.847656 731.863281 L 570.867188 731.863281 L 570.917969 721.066406 L 570.917969 702.007812 L 552.917969 702.007812 L 552.917969 682.898438 L 537.101562 682.898438 L 537.101562 665.765625 L 115.503906 564.386719 L 115.503906 564.539062 L 97.40625 564.539062 L 97.40625 587.957031 L 117.332031 593.582031 L 117.632812 610.664062 L 144.402344 615.835938 Z M 146.023438 589.070312 " fill-opacity="1" fill-rule="evenodd"/><path fill="#4eadfd" d="M 521.691406 679.347656 L 146.023438 589.070312 L 144.402344 615.835938 L 117.632812 610.714844 L 117.28125 593.632812 L 97.355469 588.007812 L 97.355469 843.226562 L 115.757812 847.992188 L 115.757812 865.175781 L 131.675781 868.726562 L 131.675781 884.640625 L 553.324219 990.480469 L 553.324219 971.574219 L 569.953125 976.035156 L 570.816406 731.964844 L 554.898438 731.964844 L 554.898438 715.085938 L 538.824219 715.085938 L 538.824219 696.128906 L 520.980469 696.128906 Z M 239.964844 483.839844 L 658.21875 582.734375 L 658.21875 604.886719 L 674.59375 604.886719 L 674.59375 617.152344 L 697.660156 617.152344 L 697.660156 587.449219 L 677.988281 587.449219 L 677.988281 568.492188 L 465.0625 521.503906 L 465.0625 493.015625 L 413.65625 481.203125 L 413.65625 500.46875 L 273.730469 469.039062 L 273.730469 449.066406 L 256.695312 445.164062 L 256.695312 465.085938 L 239.964844 465.085938 Z M 239.964844 483.839844 " fill-opacity="1" fill-rule="evenodd"/><path fill="#5e4d60" d="M 624.351562 649.1875 L 640.523438 649.1875 L 640.523438 961.941406 L 624.351562 961.941406 Z M 588.964844 721.066406 L 606.660156 721.066406 L 606.660156 703.730469 L 588.964844 703.730469 Z M 588.964844 721.066406 " fill-opacity="1" fill-rule="evenodd"/><path fill="#8b8798" d="M 206.253906 537.117188 L 624.503906 635.402344 L 624.402344 649.140625 L 206.050781 553.335938 Z M 640.523438 624.554688 L 657.964844 624.554688 L 657.964844 961.941406 L 624.351562 961.941406 L 624.351562 721.066406 L 607.265625 721.066406 L 607.265625 1003 L 623.136719 1003 L 623.136719 981.609375 L 640.574219 981.609375 L 640.574219 961.941406 L 640.523438 624.554688 L 640.574219 607.878906 L 387.699219 549.585938 L 387.699219 566.921875 Z M 640.523438 624.554688 " fill-opacity="1" fill-rule="evenodd"/><path fill="#fefae1" d="M 624.351562 649.1875 L 206 553.386719 L 206.253906 537.117188 L 624.503906 635.402344 Z M 640.523438 624.554688 L 387.699219 566.921875 L 387.699219 549.585938 L 640.472656 607.828125 Z M 624.351562 721.066406 L 624.351562 649.1875 L 640.523438 649.1875 L 640.523438 624.605469 L 657.964844 624.605469 L 657.964844 604.886719 L 658.21875 604.886719 L 190.636719 491.140625 L 190.636719 508.832031 L 173.351562 508.832031 L 173.351562 559.0625 L 537.101562 646.199219 L 537.101562 665.765625 L 570.867188 665.765625 L 570.867188 682.847656 L 588.964844 682.847656 L 588.964844 703.628906 L 606.660156 703.628906 L 606.660156 720.964844 L 607.265625 720.964844 Z M 624.351562 721.066406 " fill-opacity="1" fill-rule="evenodd"/><path fill="#a3effd" d="M 273.730469 449.066406 L 273.730469 469.089844 L 413.605469 500.519531 L 413.605469 481.15625 Z M 273.730469 449.066406 " fill-opacity="1" fill-rule="evenodd"/><path fill="#395f86" d="M 606.910156 1022.566406 L 623.085938 1022.566406 L 623.085938 1003 L 658.925781 1003 L 658.925781 990.277344 L 679.460938 990.277344 L 679.460938 962.144531 L 697.660156 962.144531 L 697.660156 617.152344 L 674.59375 617.152344 L 674.59375 961.941406 L 657.964844 961.941406 L 657.964844 981.609375 L 640.523438 981.609375 L 640.523438 1022.566406 L 623.085938 1022.566406 L 623.085938 1046.59375 L 606.910156 1042.640625 Z M 606.910156 1022.566406 " fill-opacity="1" fill-rule="evenodd"/><g clip-path="url(#4a9c34c160)"><path fill="#04020f" d="M 81.132812 564.539062 L 115.503906 564.539062 L 115.503906 564.386719 L 537.101562 665.765625 L 537.101562 682.898438 L 552.917969 682.898438 L 552.917969 702.007812 L 570.917969 702.007812 L 570.917969 721.066406 L 588.964844 721.066406 L 588.964844 1003 L 606.203125 1003 L 606.203125 1021.046875 L 115.910156 901.773438 L 115.910156 883.730469 L 97.40625 878.8125 L 97.40625 548.367188 L 115.503906 548.367188 L 115.554688 545.226562 L 155.050781 554.703125 L 155.050781 508.832031 L 190.636719 508.832031 L 190.636719 491.140625 L 189.878906 471.929688 L 221.054688 479.378906 L 221.054688 445.164062 L 256.695312 445.164062 L 256.695312 424.535156 L 465.621094 473.855469 L 465.113281 491.292969 L 483.414062 491.292969 L 483.414062 506.347656 L 676.621094 550.546875 L 677.9375 568.441406 L 677.9375 587.449219 L 697.660156 587.449219 L 697.660156 990.277344 L 658.925781 990.277344 L 658.925781 1003 L 607.265625 1003 L 607.265625 721.066406 L 588.964844 721.066406 L 588.964844 682.898438 L 570.917969 682.898438 L 570.917969 665.765625 L 537.101562 665.765625 L 537.101562 646.25 L 173.402344 559.113281 L 173.402344 491.140625 L 190.636719 491.140625 L 658.21875 604.835938 L 674.59375 604.835938 L 674.59375 961.941406 L 657.964844 961.941406 L 657.964844 981.609375 L 640.523438 981.609375 L 640.523438 1022.566406 L 623.085938 1022.566406 L 623.085938 981.609375 L 640.523438 981.609375 L 640.523438 961.941406 L 657.964844 961.941406 L 657.964844 604.835938 L 658.21875 604.835938 L 658.21875 582.683594 L 239.964844 483.839844 L 239.964844 465.085938 L 256.695312 465.085938 L 256.695312 445.164062 L 465.0625 492.964844 L 465.0625 521.453125 L 677.9375 568.441406 L 697.660156 568.441406 L 697.660156 587.449219 L 716.976562 587.449219 L 716.976562 962.144531 L 679.460938 962.144531 L 679.460938 1009.335938 L 658.925781 1009.335938 L 658.925781 1023.226562 L 640.523438 1023.226562 L 640.523438 1042.640625 L 623.085938 1042.640625 L 623.085938 1022.566406 L 606.910156 1022.566406 L 606.910156 1042.945312 L 97.40625 915.460938 L 97.40625 897.667969 L 81.132812 897.667969 Z M 81.132812 564.539062 " fill-opacity="1" fill-rule="evenodd"/></g><g clip-path="url(#15f62005ad)"><path fill="#90a1bd" d="M 606.910156 1042.945312 L 97.40625 915.511719 L 97.40625 934.773438 L 623.386719 1064.234375 L 623.035156 1046.644531 L 606.859375 1042.691406 L 606.859375 1042.945312 Z M 732.640625 948.207031 L 749.117188 948.207031 L 749.117188 965.746094 L 732.640625 965.746094 L 732.640625 979.125 L 716.976562 979.125 L 716.976562 990.226562 L 697.660156 990.226562 L 697.660156 1009.285156 L 679.460938 1009.285156 L 679.460938 1023.175781 L 658.976562 1023.175781 L 658.976562 1042.640625 L 640.523438 1042.640625 L 640.523438 1023.175781 L 658.976562 1023.175781 L 658.976562 1009.285156 L 679.460938 1009.285156 L 679.460938 990.226562 L 697.660156 990.226562 L 697.660156 962.144531 L 716.976562 962.144531 L 716.976562 931.175781 L 732.640625 931.175781 Z M 732.640625 948.207031 " fill-opacity="1" fill-rule="evenodd"/></g></svg>