<svg xmlns="http://www.w3.org/2000/svg" xmlns:xlink="http://www.w3.org/1999/xlink" width="1080" zoomAndPan="magnify" viewBox="0 0 810 1439.999935" height="1920" preserveAspectRatio="xMidYMid meet" version="1.0"><defs><clipPath id="32bb683d16"><path d="M 140.289062 776 L 669.789062 776 L 669.789062 800 L 140.289062 800 Z M 140.289062 776 " clip-rule="nonzero"/></clipPath><clipPath id="0850e40461"><path d="M 227 1025 L 583 1025 L 583 1047.839844 L 227 1047.839844 Z M 227 1025 " clip-rule="nonzero"/></clipPath><clipPath id="9b46ceda1a"><path d="M 480 392.339844 L 579 392.339844 L 579 415 L 480 415 Z M 480 392.339844 " clip-rule="nonzero"/></clipPath><clipPath id="b4e0404544"><path d="M 565 392.339844 L 589 392.339844 L 589 520 L 565 520 Z M 565 392.339844 " clip-rule="nonzero"/></clipPath><clipPath id="f71ea3d1f5"><path d="M 162 698 L 669.789062 698 L 669.789062 722 L 162 722 Z M 162 698 " clip-rule="nonzero"/></clipPath><clipPath id="aaa3db2000"><path d="M 140.289062 698 L 164 698 L 164 785 L 140.289062 785 Z M 140.289062 698 " clip-rule="nonzero"/></clipPath><clipPath id="b97e5168a6"><path d="M 647 698 L 669.789062 698 L 669.789062 785 L 647 785 Z M 647 698 " clip-rule="nonzero"/></clipPath><clipPath id="276a194ebb"><path d="M 140.289062 676 L 669.789062 676 L 669.789062 700 L 140.289062 700 Z M 140.289062 676 " clip-rule="nonzero"/></clipPath></defs><path fill="#94bc5c" d="M 470.355469 689.914062 L 452.789062 673.433594 L 511.351562 611.050781 L 520.871094 602.816406 L 618.808594 602.816406 L 620.363281 626.171875 L 591.046875 657.636719 L 581.390625 663.375 L 576.058594 689.101562 Z M 470.355469 689.914062 " fill-opacity="1" fill-rule="evenodd"/><path fill="#38733f" d="M 470.289062 656.890625 L 576.933594 656.890625 L 576.933594 679.644531 L 470.289062 679.644531 Z M 470.289062 656.890625 " fill-opacity="1" fill-rule="evenodd"/><path fill="#94bc5c" d="M 404.496094 588.699219 L 411.253906 566.078125 L 430.640625 530.5625 L 434.421875 453.726562 L 455.628906 433.339844 L 477.035156 409.371094 L 482.308594 409.371094 L 487.640625 398.296875 L 588.691406 399.578125 L 585.445312 509.902344 L 568.082031 517.742188 L 546.878906 539.070312 L 548.90625 547.988281 L 514.589844 551.96875 L 478.054688 581.476562 L 431.308594 600.78125 Z M 404.496094 588.699219 " fill-opacity="1" fill-rule="evenodd"/><path fill="#6b9d58" d="M 503.917969 516.792969 L 557.613281 516.792969 L 557.613281 535.765625 L 503.917969 535.765625 Z M 503.917969 516.792969 " fill-opacity="1" fill-rule="nonzero"/><path fill="#6b9d58" d="M 543.566406 474.726562 L 566.328125 474.726562 L 566.328125 519.089844 L 543.566406 519.089844 Z M 543.566406 474.726562 " fill-opacity="1" fill-rule="nonzero"/><path fill="#38733f" d="M 439.082031 554.46875 L 461.84375 554.46875 L 461.84375 577.222656 L 439.082031 577.222656 Z M 439.082031 554.46875 " fill-opacity="1" fill-rule="nonzero"/><path fill="#38733f" d="M 419.085938 554.46875 L 441.847656 554.46875 L 441.847656 594.511719 L 419.085938 594.511719 Z M 419.085938 554.46875 " fill-opacity="1" fill-rule="nonzero"/><path fill="#94bc5c" d="M 195.453125 435.296875 L 197.007812 441.980469 L 197.007812 487.828125 L 195.183594 514.496094 L 218.285156 564.191406 L 257.253906 602 L 280.625 612.671875 L 356.8125 615.976562 L 359.246094 634.949219 L 359.582031 669.246094 L 362.355469 680.929688 L 427.324219 683.964844 L 429.351562 608.144531 L 392.136719 556.292969 L 377.207031 553.65625 L 377.546875 508.285156 L 358.769531 492.488281 L 356.742188 452.921875 L 326.554688 455.285156 L 310.144531 434.488281 Z M 195.453125 435.296875 " fill-opacity="1" fill-rule="evenodd"/><path fill="#6b9d58" d="M 217.878906 518.34375 L 240.636719 518.34375 L 240.636719 560.679688 L 217.878906 560.679688 Z M 217.878906 518.34375 " fill-opacity="1" fill-rule="nonzero"/><path fill="#d97248" d="M 606.042969 794.902344 L 203.625 794.902344 L 203.152344 902.390625 L 221.929688 925.347656 L 219.835938 1011.640625 L 237.195312 1038.777344 L 570.515625 1037.363281 L 591.453125 1012.3125 L 589.359375 925.347656 L 606.042969 899.621094 Z M 606.042969 794.902344 " fill-opacity="1" fill-rule="evenodd"/><path fill="#bb573a" d="M 233.753906 1002.183594 L 576.058594 1002.183594 L 576.058594 1025.210938 L 233.753906 1025.210938 Z M 233.753906 1002.183594 " fill-opacity="1" fill-rule="nonzero"/><path fill="#d97248" d="M 162.628906 698.347656 L 658.457031 698.347656 L 658.457031 784.632812 L 162.628906 784.632812 Z M 162.628906 698.347656 " fill-opacity="1" fill-rule="nonzero"/><g clip-path="url(#32bb683d16)"><path fill="#000000" d="M 140.273438 776.675781 L 669.808594 776.675781 L 669.808594 799.425781 L 140.273438 799.425781 Z M 140.273438 776.675781 " fill-opacity="1" fill-rule="nonzero"/></g><path fill="#000000" d="M 211.257812 906.171875 L 234.019531 906.171875 L 234.019531 1027.835938 L 211.257812 1027.835938 Z M 211.257812 906.171875 " fill-opacity="1" fill-rule="nonzero"/><path fill="#000000" d="M 192.277344 794.902344 L 215.039062 794.902344 L 215.039062 916.570312 L 192.277344 916.570312 Z M 192.277344 794.902344 " fill-opacity="1" fill-rule="nonzero"/><path fill="#000000" d="M 576.058594 906.171875 L 598.820312 906.171875 L 598.820312 1027.835938 L 576.058594 1027.835938 Z M 576.058594 906.171875 " fill-opacity="1" fill-rule="nonzero"/><path fill="#000000" d="M 595.03125 794.902344 L 617.792969 794.902344 L 617.792969 916.570312 L 595.03125 916.570312 Z M 595.03125 794.902344 " fill-opacity="1" fill-rule="nonzero"/><g clip-path="url(#0850e40461)"><path fill="#000000" d="M 227.539062 1025.003906 L 582.542969 1025.003906 L 582.542969 1047.757812 L 227.539062 1047.757812 Z M 227.539062 1025.003906 " fill-opacity="1" fill-rule="nonzero"/></g><path fill="#000000" d="M 237.535156 581.339844 L 261.847656 581.339844 L 261.847656 604.09375 L 237.535156 604.09375 Z M 237.535156 581.339844 " fill-opacity="1" fill-rule="nonzero"/><path fill="#000000" d="M 216.730469 560.679688 L 239.492188 560.679688 L 239.492188 583.433594 L 216.730469 583.433594 Z M 216.730469 560.679688 " fill-opacity="1" fill-rule="nonzero"/><path fill="#000000" d="M 195.589844 518.34375 L 218.351562 518.34375 L 218.351562 564.324219 L 195.589844 564.324219 Z M 195.589844 518.34375 " fill-opacity="1" fill-rule="nonzero"/><path fill="#000000" d="M 176.609375 435.296875 L 199.371094 435.296875 L 199.371094 519.964844 L 176.609375 519.964844 Z M 176.609375 435.296875 " fill-opacity="1" fill-rule="nonzero"/><path fill="#000000" d="M 195.453125 423.414062 L 319.730469 423.414062 L 319.730469 446.167969 L 195.453125 446.167969 Z M 195.453125 423.414062 " fill-opacity="1" fill-rule="nonzero"/><path fill="#000000" d="M 317.09375 444.007812 L 365.925781 444.007812 L 365.925781 466.761719 L 317.09375 466.761719 Z M 317.09375 444.007812 " fill-opacity="1" fill-rule="nonzero"/><path fill="#000000" d="M 343.644531 464.125 L 366 464.125 L 366 498.828125 L 343.644531 498.828125 Z M 343.644531 464.125 " fill-opacity="1" fill-rule="nonzero"/><path fill="#000000" d="M 365.121094 496.269531 L 387.878906 496.269531 L 387.878906 571.148438 L 365.121094 571.148438 Z M 365.121094 496.269531 " fill-opacity="1" fill-rule="nonzero"/><path fill="#000000" d="M 381.667969 548.800781 L 420.433594 548.800781 L 420.433594 571.148438 L 381.667969 571.148438 Z M 381.667969 548.800781 " fill-opacity="1" fill-rule="nonzero"/><path fill="#000000" d="M 398.214844 554.945312 L 420.367188 554.945312 L 420.367188 601.128906 L 398.214844 601.128906 Z M 398.214844 554.945312 " fill-opacity="1" fill-rule="nonzero"/><path fill="#000000" d="M 419.289062 446.371094 L 442.050781 446.371094 L 442.050781 554.535156 L 419.289062 554.535156 Z M 419.289062 446.371094 " fill-opacity="1" fill-rule="nonzero"/><path fill="#000000" d="M 440.5 425.101562 L 463.261719 425.101562 L 463.261719 447.855469 L 440.5 447.855469 Z M 440.5 425.101562 " fill-opacity="1" fill-rule="nonzero"/><path fill="#000000" d="M 461.4375 407.414062 L 484.199219 407.414062 L 484.199219 430.167969 L 461.4375 430.167969 Z M 461.4375 407.414062 " fill-opacity="1" fill-rule="nonzero"/><g clip-path="url(#9b46ceda1a)"><path fill="#000000" d="M 480.886719 392.421875 L 578.550781 392.421875 L 578.550781 414.03125 L 480.886719 414.03125 Z M 480.886719 392.421875 " fill-opacity="1" fill-rule="nonzero"/></g><g clip-path="url(#b4e0404544)"><path fill="#000000" d="M 565.726562 392.492188 L 588.488281 392.492188 L 588.488281 519.222656 L 565.726562 519.222656 Z M 565.726562 392.492188 " fill-opacity="1" fill-rule="nonzero"/></g><path fill="#000000" d="M 546.878906 517.742188 L 569.640625 517.742188 L 569.640625 540.496094 L 546.878906 540.496094 Z M 546.878906 517.742188 " fill-opacity="1" fill-rule="nonzero"/><path fill="#000000" d="M 504.257812 535.765625 L 548.898438 535.765625 L 548.898438 558.453125 L 504.257812 558.453125 Z M 504.257812 535.765625 " fill-opacity="1" fill-rule="nonzero"/><path fill="#000000" d="M 482.851562 556.089844 L 505.613281 556.089844 L 505.613281 578.84375 L 482.851562 578.84375 Z M 482.851562 556.089844 " fill-opacity="1" fill-rule="nonzero"/><path fill="#000000" d="M 438.945312 576.882812 L 483.859375 576.882812 L 483.859375 599.636719 L 438.945312 599.636719 Z M 438.945312 576.882812 " fill-opacity="1" fill-rule="nonzero"/><path fill="#000000" d="M 440.023438 655.136719 L 470.347656 655.136719 L 470.347656 677.890625 L 440.023438 677.890625 Z M 440.023438 655.136719 " fill-opacity="1" fill-rule="nonzero"/><path fill="#000000" d="M 467.378906 634.136719 L 490.140625 634.136719 L 490.140625 656.890625 L 467.378906 656.890625 Z M 467.378906 634.136719 " fill-opacity="1" fill-rule="nonzero"/><path fill="#000000" d="M 488.589844 611.050781 L 511.351562 611.050781 L 511.351562 635.964844 L 488.589844 635.964844 Z M 488.589844 611.050781 " fill-opacity="1" fill-rule="nonzero"/><path fill="#000000" d="M 508.714844 589.105469 L 633.128906 589.105469 L 633.128906 611.859375 L 508.714844 611.859375 Z M 508.714844 589.105469 " fill-opacity="1" fill-rule="nonzero"/><path fill="#000000" d="M 610.230469 610.441406 L 632.992188 610.441406 L 632.992188 635.964844 L 610.230469 635.964844 Z M 610.230469 610.441406 " fill-opacity="1" fill-rule="nonzero"/><path fill="#000000" d="M 589.902344 634.882812 L 612.664062 634.882812 L 612.664062 657.636719 L 589.902344 657.636719 Z M 589.902344 634.882812 " fill-opacity="1" fill-rule="nonzero"/><path fill="#000000" d="M 570.3125 656.558594 L 593.074219 656.558594 L 593.074219 682.488281 L 570.3125 682.488281 Z M 570.3125 656.558594 " fill-opacity="1" fill-rule="nonzero"/><g clip-path="url(#f71ea3d1f5)"><path fill="#e89f7c" d="M 162.902344 698.820312 L 669.808594 698.820312 L 669.808594 721.574219 L 162.902344 721.574219 Z M 162.902344 698.820312 " fill-opacity="1" fill-rule="nonzero"/></g><g clip-path="url(#aaa3db2000)"><path fill="#000000" d="M 140.402344 698.347656 L 163.164062 698.347656 L 163.164062 784.566406 L 140.402344 784.566406 Z M 140.402344 698.347656 " fill-opacity="1" fill-rule="nonzero"/></g><g clip-path="url(#b97e5168a6)"><path fill="#000000" d="M 647.039062 698.414062 L 669.800781 698.414062 L 669.800781 784.632812 L 647.039062 784.632812 Z M 647.039062 698.414062 " fill-opacity="1" fill-rule="nonzero"/></g><path fill="#e89f7c" d="M 163.234375 735.683594 L 200.652344 735.683594 L 200.652344 758.4375 L 163.234375 758.4375 Z M 163.234375 735.683594 " fill-opacity="1" fill-rule="nonzero"/><path fill="#bb573a" d="M 215.042969 798.75 L 595.039062 798.75 L 595.039062 821.503906 L 215.042969 821.503906 Z M 215.042969 798.75 " fill-opacity="1" fill-rule="nonzero"/><path fill="#e89f7c" d="M 255.023438 851.28125 L 277.785156 851.28125 L 277.785156 932.847656 L 255.023438 932.847656 Z M 255.023438 851.28125 " fill-opacity="1" fill-rule="nonzero"/><path fill="#e89f7c" d="M 273.257812 923.59375 L 296.019531 923.59375 L 296.019531 982.066406 L 273.257812 982.066406 Z M 273.257812 923.59375 " fill-opacity="1" fill-rule="nonzero"/><path fill="#c15938" d="M 572.203125 820.628906 L 594.964844 820.628906 L 594.964844 906.179688 L 572.203125 906.179688 Z M 572.203125 820.628906 " fill-opacity="1" fill-rule="nonzero"/><path fill="#c15938" d="M 553.09375 820.628906 L 575.855469 820.628906 L 575.855469 1002.191406 L 553.09375 1002.191406 Z M 553.09375 820.628906 " fill-opacity="1" fill-rule="nonzero"/><path fill="#c15938" d="M 531.679688 820.628906 L 554.375 820.628906 L 554.375 1002.191406 L 531.679688 1002.191406 Z M 531.679688 820.628906 " fill-opacity="1" fill-rule="nonzero"/><path fill="#c15938" d="M 509.867188 820.628906 L 532.628906 820.628906 L 532.628906 1002.191406 L 509.867188 1002.191406 Z M 509.867188 820.628906 " fill-opacity="1" fill-rule="nonzero"/><path fill="#c15938" d="M 624.015625 699.703125 L 646.777344 699.703125 L 646.777344 776.675781 L 624.015625 776.675781 Z M 624.015625 699.703125 " fill-opacity="1" fill-rule="nonzero"/><path fill="#c15938" d="M 602.128906 699.703125 L 624.886719 699.703125 L 624.886719 776.675781 L 602.128906 776.675781 Z M 602.128906 699.703125 " fill-opacity="1" fill-rule="nonzero"/><path fill="#c15938" d="M 580.179688 699.703125 L 602.941406 699.703125 L 602.941406 776.675781 L 580.179688 776.675781 Z M 580.179688 699.703125 " fill-opacity="1" fill-rule="nonzero"/><path fill="#c15938" d="M 558.292969 699.703125 L 581.054688 699.703125 L 581.054688 776.675781 L 558.292969 776.675781 Z M 558.292969 699.703125 " fill-opacity="1" fill-rule="nonzero"/><path fill="#38733f" d="M 339.050781 570.738281 L 368.976562 570.738281 L 368.976562 602 L 339.050781 602 Z M 339.050781 570.738281 " fill-opacity="1" fill-rule="nonzero"/><path fill="#38733f" d="M 310.949219 543.121094 L 340.941406 543.121094 L 340.941406 573.105469 L 310.949219 573.105469 Z M 310.949219 543.121094 " fill-opacity="1" fill-rule="nonzero"/><path fill="#38733f" d="M 283.125 515.378906 L 313.117188 515.378906 L 313.117188 545.359375 L 283.125 545.359375 Z M 283.125 515.378906 " fill-opacity="1" fill-rule="nonzero"/><path fill="#38733f" d="M 255.632812 487.488281 L 285.625 487.488281 L 285.625 517.402344 L 255.632812 517.402344 Z M 255.632812 487.488281 " fill-opacity="1" fill-rule="nonzero"/><path fill="#38733f" d="M 229.296875 460.074219 L 259.285156 460.074219 L 259.285156 490.054688 L 229.296875 490.054688 Z M 229.296875 460.074219 " fill-opacity="1" fill-rule="nonzero"/><path fill="#38733f" d="M 365.863281 601.121094 L 418.074219 601.121094 L 418.074219 691.195312 L 365.863281 691.195312 Z M 365.863281 601.121094 " fill-opacity="1" fill-rule="evenodd"/><path fill="#000000" d="M 343.171875 622.324219 L 365.933594 622.324219 L 365.933594 679.175781 L 343.171875 679.175781 Z M 343.171875 622.324219 " fill-opacity="1" fill-rule="nonzero"/><path fill="#000000" d="M 418.074219 594.511719 L 440.835938 594.511719 L 440.835938 678.90625 L 418.074219 678.90625 Z M 418.074219 594.511719 " fill-opacity="1" fill-rule="nonzero"/><path fill="#000000" d="M 257.253906 602 L 365.933594 602 L 365.933594 624.753906 L 257.253906 624.753906 Z M 257.253906 602 " fill-opacity="1" fill-rule="nonzero"/><g clip-path="url(#276a194ebb)"><path fill="#000000" d="M 140.273438 676.949219 L 669.808594 676.949219 L 669.808594 699.703125 L 140.273438 699.703125 Z M 140.273438 676.949219 " fill-opacity="1" fill-rule="nonzero"/></g><path fill="#6b9d58" d="M 239.222656 560.679688 L 261.984375 560.679688 L 261.984375 583.433594 L 239.222656 583.433594 Z M 239.222656 560.679688 " fill-opacity="1" fill-rule="nonzero"/><path fill="#38733f" d="M 542.964844 414.027344 L 565.726562 414.027344 L 565.726562 436.777344 L 542.964844 436.777344 Z M 542.964844 414.027344 " fill-opacity="1" fill-rule="nonzero"/><path fill="#38733f" d="M 522.296875 435.226562 L 545.058594 435.226562 L 545.058594 457.980469 L 522.296875 457.980469 Z M 522.296875 435.226562 " fill-opacity="1" fill-rule="nonzero"/><path fill="#38733f" d="M 501.621094 456.363281 L 524.382812 456.363281 L 524.382812 479.117188 L 501.621094 479.117188 Z M 501.621094 456.363281 " fill-opacity="1" fill-rule="nonzero"/><path fill="#38733f" d="M 480.953125 477.566406 L 503.714844 477.566406 L 503.714844 500.320312 L 480.953125 500.320312 Z M 480.953125 477.566406 " fill-opacity="1" fill-rule="nonzero"/><path fill="#38733f" d="M 460.285156 498.699219 L 483.046875 498.699219 L 483.046875 556.496094 L 460.285156 556.496094 Z M 460.285156 498.699219 " fill-opacity="1" fill-rule="nonzero"/><path fill="#38733f" d="M 460.285156 533.742188 L 483.046875 533.742188 L 483.046875 556.496094 L 460.285156 556.496094 Z M 460.285156 533.742188 " fill-opacity="1" fill-rule="nonzero"/><path fill="#38733f" d="M 550.117188 611.859375 L 573.761719 611.859375 L 573.761719 635.425781 L 550.117188 635.425781 Z M 550.117188 611.859375 " fill-opacity="1" fill-rule="nonzero"/><path fill="#38733f" d="M 529.246094 634.542969 L 552.007812 634.542969 L 552.007812 657.296875 L 529.246094 657.296875 Z M 529.246094 634.542969 " fill-opacity="1" fill-rule="nonzero"/></svg>