<svg xmlns="http://www.w3.org/2000/svg" xmlns:xlink="http://www.w3.org/1999/xlink" width="1080" zoomAndPan="magnify" viewBox="0 0 810 1439.999935" height="1920" preserveAspectRatio="xMidYMid meet" version="1.0"><defs><clipPath id="871645523c"><path d="M 323 391.878906 L 368 391.878906 L 368 436 L 323 436 Z M 323 391.878906 " clip-rule="nonzero"/></clipPath><clipPath id="6e8f696c51"><path d="M 367 391.878906 L 411 391.878906 L 411 436 L 367 436 Z M 367 391.878906 " clip-rule="nonzero"/></clipPath><clipPath id="363f3b5ffb"><path d="M 410 391.878906 L 455 391.878906 L 455 436 L 410 436 Z M 410 391.878906 " clip-rule="nonzero"/></clipPath><clipPath id="b54eae3a03"><path d="M 454 391.878906 L 499 391.878906 L 499 436 L 454 436 Z M 454 391.878906 " clip-rule="nonzero"/></clipPath><clipPath id="62ae7dd35a"><path d="M 498 391.878906 L 543 391.878906 L 543 436 L 498 436 Z M 498 391.878906 " clip-rule="nonzero"/></clipPath><clipPath id="2ba77a15c2"><path d="M 323 1004 L 368 1004 L 368 1048.128906 L 323 1048.128906 Z M 323 1004 " clip-rule="nonzero"/></clipPath><clipPath id="f4a5ae0d0f"><path d="M 367 1004 L 411 1004 L 411 1048.128906 L 367 1048.128906 Z M 367 1004 " clip-rule="nonzero"/></clipPath><clipPath id="950bb5b0d8"><path d="M 410 1004 L 455 1004 L 455 1048.128906 L 410 1048.128906 Z M 410 1004 " clip-rule="nonzero"/></clipPath><clipPath id="84fa5b9771"><path d="M 454 1004 L 499 1004 L 499 1048.128906 L 454 1048.128906 Z M 454 1004 " clip-rule="nonzero"/></clipPath><clipPath id="22f9546b8a"><path d="M 498 1004 L 543 1004 L 543 1048.128906 L 498 1048.128906 Z M 498 1004 " clip-rule="nonzero"/></clipPath><clipPath id="6c35e56af7"><path d="M 717 610 L 760.78125 610 L 760.78125 655 L 717 655 Z M 717 610 " clip-rule="nonzero"/></clipPath><clipPath id="51e2b9159a"><path d="M 717 654 L 760.78125 654 L 760.78125 699 L 717 699 Z M 717 654 " clip-rule="nonzero"/></clipPath><clipPath id="c1922b8b83"><path d="M 717 698 L 760.78125 698 L 760.78125 742 L 717 742 Z M 717 698 " clip-rule="nonzero"/></clipPath><clipPath id="67440d0131"><path d="M 717 741 L 760.78125 741 L 760.78125 786 L 717 786 Z M 717 741 " clip-rule="nonzero"/></clipPath><clipPath id="df70469c34"><path d="M 717 785 L 760.78125 785 L 760.78125 830 L 717 830 Z M 717 785 " clip-rule="nonzero"/></clipPath><clipPath id="957d4d9320"><path d="M 104.53125 610 L 149 610 L 149 655 L 104.53125 655 Z M 104.53125 610 " clip-rule="nonzero"/></clipPath><clipPath id="8f7e6f3bc5"><path d="M 104.53125 654 L 149 654 L 149 699 L 104.53125 699 Z M 104.53125 654 " clip-rule="nonzero"/></clipPath><clipPath id="836d739292"><path d="M 104.53125 698 L 149 698 L 149 742 L 104.53125 742 Z M 104.53125 698 " clip-rule="nonzero"/></clipPath><clipPath id="39376fd209"><path d="M 104.53125 741 L 149 741 L 149 786 L 104.53125 786 Z M 104.53125 741 " clip-rule="nonzero"/></clipPath><clipPath id="749b140994"><path d="M 104.53125 785 L 149 785 L 149 830 L 104.53125 830 Z M 104.53125 785 " clip-rule="nonzero"/></clipPath></defs><path fill="#ffcc33" d="M 126.40625 632.503906 L 170.15625 588.753906 L 170.15625 545.003906 L 257.65625 457.503906 L 301.40625 457.503906 L 345.15625 413.753906 L 520.15625 413.753906 L 563.90625 457.503906 L 607.65625 457.503906 L 695.15625 545.003906 L 695.15625 588.753906 L 738.90625 632.503906 L 738.90625 807.503906 L 695.15625 851.253906 L 695.15625 895.003906 L 629.53125 960.628906 L 607.65625 982.714844 L 563.90625 982.714844 L 542.03125 1004.378906 L 520.15625 1026.464844 L 345.15625 1026.464844 L 323.28125 1004.378906 L 301.40625 982.714844 L 257.65625 982.714844 L 235.78125 960.628906 L 170.15625 895.003906 L 170.15625 851.253906 L 126.40625 807.503906 Z M 126.40625 632.503906 " fill-opacity="1" fill-rule="nonzero"/><path fill="#ffb41f" d="M 629.53125 873.128906 L 673.28125 873.128906 L 673.28125 916.878906 L 629.53125 916.878906 Z M 629.53125 873.128906 " fill-opacity="1" fill-rule="nonzero"/><path fill="#ffb41f" d="M 585.78125 873.128906 L 629.53125 873.128906 L 629.53125 916.878906 L 585.78125 916.878906 Z M 585.78125 873.128906 " fill-opacity="1" fill-rule="nonzero"/><path fill="#ffb41f" d="M 192.03125 873.128906 L 235.78125 873.128906 L 235.78125 916.878906 L 192.03125 916.878906 Z M 192.03125 873.128906 " fill-opacity="1" fill-rule="nonzero"/><path fill="#ffb41f" d="M 235.78125 873.128906 L 279.53125 873.128906 L 279.53125 916.878906 L 235.78125 916.878906 Z M 235.78125 873.128906 " fill-opacity="1" fill-rule="nonzero"/><path fill="#ffb41f" d="M 629.53125 829.378906 L 673.28125 829.378906 L 673.28125 873.128906 L 629.53125 873.128906 Z M 629.53125 829.378906 " fill-opacity="1" fill-rule="nonzero"/><path fill="#ffb41f" d="M 192.03125 829.378906 L 235.78125 829.378906 L 235.78125 873.128906 L 192.03125 873.128906 Z M 192.03125 829.378906 " fill-opacity="1" fill-rule="nonzero"/><path fill="#ffb41f" d="M 629.53125 785.628906 L 673.28125 785.628906 L 673.28125 829.378906 L 629.53125 829.378906 Z M 629.53125 785.628906 " fill-opacity="1" fill-rule="nonzero"/><path fill="#ffb41f" d="M 192.03125 785.628906 L 235.78125 785.628906 L 235.78125 829.378906 L 192.03125 829.378906 Z M 192.03125 785.628906 " fill-opacity="1" fill-rule="nonzero"/><path fill="#ffb41f" d="M 542.03125 916.878906 L 585.78125 916.878906 L 585.78125 960.628906 L 542.03125 960.628906 Z M 542.03125 916.878906 " fill-opacity="1" fill-rule="nonzero"/><path fill="#ffb41f" d="M 498.28125 916.878906 L 542.03125 916.878906 L 542.03125 960.628906 L 498.28125 960.628906 Z M 498.28125 916.878906 " fill-opacity="1" fill-rule="nonzero"/><path fill="#ffb41f" d="M 585.78125 916.878906 L 629.53125 916.878906 L 629.53125 960.628906 L 585.78125 960.628906 Z M 585.78125 916.878906 " fill-opacity="1" fill-rule="nonzero"/><path fill="#ffb41f" d="M 235.78125 916.878906 L 279.53125 916.878906 L 279.53125 960.628906 L 235.78125 960.628906 Z M 235.78125 916.878906 " fill-opacity="1" fill-rule="nonzero"/><path fill="#ffb41f" d="M 279.53125 916.878906 L 323.28125 916.878906 L 323.28125 960.628906 L 279.53125 960.628906 Z M 279.53125 916.878906 " fill-opacity="1" fill-rule="nonzero"/><path fill="#ffb41f" d="M 323.28125 916.878906 L 367.03125 916.878906 L 367.03125 960.628906 L 323.28125 960.628906 Z M 323.28125 916.878906 " fill-opacity="1" fill-rule="nonzero"/><path fill="#ffb41f" d="M 323.28125 960.628906 L 367.03125 960.628906 L 367.03125 1004.378906 L 323.28125 1004.378906 Z M 323.28125 960.628906 " fill-opacity="1" fill-rule="nonzero"/><path fill="#ffb41f" d="M 367.03125 960.628906 L 410.78125 960.628906 L 410.78125 1004.378906 L 367.03125 1004.378906 Z M 367.03125 960.628906 " fill-opacity="1" fill-rule="nonzero"/><path fill="#ffb41f" d="M 410.78125 960.628906 L 454.53125 960.628906 L 454.53125 1004.378906 L 410.78125 1004.378906 Z M 410.78125 960.628906 " fill-opacity="1" fill-rule="nonzero"/><path fill="#ffb41f" d="M 454.53125 960.628906 L 498.28125 960.628906 L 498.28125 1004.378906 L 454.53125 1004.378906 Z M 454.53125 960.628906 " fill-opacity="1" fill-rule="nonzero"/><path fill="#ffb41f" d="M 498.28125 960.628906 L 542.03125 960.628906 L 542.03125 1004.378906 L 498.28125 1004.378906 Z M 498.28125 960.628906 " fill-opacity="1" fill-rule="nonzero"/><path fill="#ffb41f" d="M 673.28125 741.878906 L 717.03125 741.878906 L 717.03125 785.628906 L 673.28125 785.628906 Z M 673.28125 741.878906 " fill-opacity="1" fill-rule="nonzero"/><path fill="#ffb41f" d="M 673.28125 785.628906 L 717.03125 785.628906 L 717.03125 829.378906 L 673.28125 829.378906 Z M 673.28125 785.628906 " fill-opacity="1" fill-rule="nonzero"/><path fill="#ffb41f" d="M 148.28125 741.878906 L 192.03125 741.878906 L 192.03125 785.628906 L 148.28125 785.628906 Z M 148.28125 741.878906 " fill-opacity="1" fill-rule="nonzero"/><path fill="#ffb41f" d="M 148.28125 785.628906 L 192.03125 785.628906 L 192.03125 829.378906 L 148.28125 829.378906 Z M 148.28125 785.628906 " fill-opacity="1" fill-rule="nonzero"/><path fill="#ffd969" d="M 629.53125 523.128906 L 673.28125 523.128906 L 673.28125 566.878906 L 629.53125 566.878906 Z M 629.53125 523.128906 " fill-opacity="1" fill-rule="nonzero"/><path fill="#ffd969" d="M 192.03125 523.128906 L 235.78125 523.128906 L 235.78125 566.878906 L 192.03125 566.878906 Z M 192.03125 523.128906 " fill-opacity="1" fill-rule="nonzero"/><path fill="#ffd969" d="M 542.03125 479.378906 L 585.78125 479.378906 L 585.78125 523.128906 L 542.03125 523.128906 Z M 542.03125 479.378906 " fill-opacity="1" fill-rule="nonzero"/><path fill="#ffd969" d="M 585.78125 479.378906 L 629.53125 479.378906 L 629.53125 523.128906 L 585.78125 523.128906 Z M 585.78125 479.378906 " fill-opacity="1" fill-rule="nonzero"/><path fill="#ffd969" d="M 235.78125 479.378906 L 279.53125 479.378906 L 279.53125 523.128906 L 235.78125 523.128906 Z M 235.78125 479.378906 " fill-opacity="1" fill-rule="nonzero"/><path fill="#ffd969" d="M 279.53125 479.378906 L 323.28125 479.378906 L 323.28125 523.128906 L 279.53125 523.128906 Z M 279.53125 479.378906 " fill-opacity="1" fill-rule="nonzero"/><path fill="#ffd969" d="M 323.28125 435.628906 L 367.03125 435.628906 L 367.03125 479.378906 L 323.28125 479.378906 Z M 323.28125 435.628906 " fill-opacity="1" fill-rule="nonzero"/><path fill="#ffd969" d="M 367.03125 435.628906 L 410.78125 435.628906 L 410.78125 479.378906 L 367.03125 479.378906 Z M 367.03125 435.628906 " fill-opacity="1" fill-rule="nonzero"/><path fill="#ffd969" d="M 410.78125 435.628906 L 454.53125 435.628906 L 454.53125 479.378906 L 410.78125 479.378906 Z M 410.78125 435.628906 " fill-opacity="1" fill-rule="nonzero"/><path fill="#ffd969" d="M 454.53125 435.628906 L 498.28125 435.628906 L 498.28125 479.378906 L 454.53125 479.378906 Z M 454.53125 435.628906 " fill-opacity="1" fill-rule="nonzero"/><path fill="#ffd969" d="M 498.28125 435.628906 L 542.03125 435.628906 L 542.03125 479.378906 L 498.28125 479.378906 Z M 498.28125 435.628906 " fill-opacity="1" fill-rule="nonzero"/><g clip-path="url(#871645523c)"><path fill="#3a3a3a" d="M 323.28125 391.878906 L 367.03125 391.878906 L 367.03125 435.628906 L 323.28125 435.628906 Z M 323.28125 391.878906 " fill-opacity="1" fill-rule="nonzero"/></g><g clip-path="url(#6e8f696c51)"><path fill="#3a3a3a" d="M 367.03125 391.878906 L 410.78125 391.878906 L 410.78125 435.628906 L 367.03125 435.628906 Z M 367.03125 391.878906 " fill-opacity="1" fill-rule="nonzero"/></g><g clip-path="url(#363f3b5ffb)"><path fill="#3a3a3a" d="M 410.78125 391.878906 L 454.53125 391.878906 L 454.53125 435.628906 L 410.78125 435.628906 Z M 410.78125 391.878906 " fill-opacity="1" fill-rule="nonzero"/></g><g clip-path="url(#b54eae3a03)"><path fill="#3a3a3a" d="M 454.53125 391.878906 L 498.28125 391.878906 L 498.28125 435.628906 L 454.53125 435.628906 Z M 454.53125 391.878906 " fill-opacity="1" fill-rule="nonzero"/></g><g clip-path="url(#62ae7dd35a)"><path fill="#3a3a3a" d="M 498.28125 391.878906 L 542.03125 391.878906 L 542.03125 435.628906 L 498.28125 435.628906 Z M 498.28125 391.878906 " fill-opacity="1" fill-rule="nonzero"/></g><g clip-path="url(#2ba77a15c2)"><path fill="#3a3a3a" d="M 323.28125 1004.378906 L 367.03125 1004.378906 L 367.03125 1048.128906 L 323.28125 1048.128906 Z M 323.28125 1004.378906 " fill-opacity="1" fill-rule="nonzero"/></g><g clip-path="url(#f4a5ae0d0f)"><path fill="#3a3a3a" d="M 367.03125 1004.378906 L 410.78125 1004.378906 L 410.78125 1048.128906 L 367.03125 1048.128906 Z M 367.03125 1004.378906 " fill-opacity="1" fill-rule="nonzero"/></g><g clip-path="url(#950bb5b0d8)"><path fill="#3a3a3a" d="M 410.78125 1004.378906 L 454.53125 1004.378906 L 454.53125 1048.128906 L 410.78125 1048.128906 Z M 410.78125 1004.378906 " fill-opacity="1" fill-rule="nonzero"/></g><g clip-path="url(#84fa5b9771)"><path fill="#3a3a3a" d="M 454.53125 1004.378906 L 498.28125 1004.378906 L 498.28125 1048.128906 L 454.53125 1048.128906 Z M 454.53125 1004.378906 " fill-opacity="1" fill-rule="nonzero"/></g><g clip-path="url(#22f9546b8a)"><path fill="#3a3a3a" d="M 498.28125 1004.378906 L 542.03125 1004.378906 L 542.03125 1048.128906 L 498.28125 1048.128906 Z M 498.28125 1004.378906 " fill-opacity="1" fill-rule="nonzero"/></g><path fill="#3a3a3a" d="M 542.03125 435.628906 L 585.78125 435.628906 L 585.78125 479.378906 L 542.03125 479.378906 Z M 542.03125 435.628906 " fill-opacity="1" fill-rule="nonzero"/><path fill="#3a3a3a" d="M 585.78125 435.628906 L 629.53125 435.628906 L 629.53125 479.378906 L 585.78125 479.378906 Z M 585.78125 435.628906 " fill-opacity="1" fill-rule="nonzero"/><path fill="#3a3a3a" d="M 629.53125 479.378906 L 673.28125 479.378906 L 673.28125 523.128906 L 629.53125 523.128906 Z M 629.53125 479.378906 " fill-opacity="1" fill-rule="nonzero"/><path fill="#3a3a3a" d="M 673.28125 523.128906 L 717.03125 523.128906 L 717.03125 566.878906 L 673.28125 566.878906 Z M 673.28125 523.128906 " fill-opacity="1" fill-rule="nonzero"/><path fill="#3a3a3a" d="M 673.28125 566.878906 L 717.03125 566.878906 L 717.03125 610.628906 L 673.28125 610.628906 Z M 673.28125 566.878906 " fill-opacity="1" fill-rule="nonzero"/><g clip-path="url(#6c35e56af7)"><path fill="#3a3a3a" d="M 717.03125 610.628906 L 760.78125 610.628906 L 760.78125 654.378906 L 717.03125 654.378906 Z M 717.03125 610.628906 " fill-opacity="1" fill-rule="nonzero"/></g><g clip-path="url(#51e2b9159a)"><path fill="#3a3a3a" d="M 717.03125 654.378906 L 760.78125 654.378906 L 760.78125 698.128906 L 717.03125 698.128906 Z M 717.03125 654.378906 " fill-opacity="1" fill-rule="nonzero"/></g><g clip-path="url(#c1922b8b83)"><path fill="#3a3a3a" d="M 717.03125 698.128906 L 760.78125 698.128906 L 760.78125 741.878906 L 717.03125 741.878906 Z M 717.03125 698.128906 " fill-opacity="1" fill-rule="nonzero"/></g><g clip-path="url(#67440d0131)"><path fill="#3a3a3a" d="M 717.03125 741.878906 L 760.78125 741.878906 L 760.78125 785.628906 L 717.03125 785.628906 Z M 717.03125 741.878906 " fill-opacity="1" fill-rule="nonzero"/></g><g clip-path="url(#df70469c34)"><path fill="#3a3a3a" d="M 717.03125 785.628906 L 760.78125 785.628906 L 760.78125 829.378906 L 717.03125 829.378906 Z M 717.03125 785.628906 " fill-opacity="1" fill-rule="nonzero"/></g><g clip-path="url(#957d4d9320)"><path fill="#3a3a3a" d="M 104.53125 610.628906 L 148.28125 610.628906 L 148.28125 654.378906 L 104.53125 654.378906 Z M 104.53125 610.628906 " fill-opacity="1" fill-rule="nonzero"/></g><g clip-path="url(#8f7e6f3bc5)"><path fill="#3a3a3a" d="M 104.53125 654.378906 L 148.28125 654.378906 L 148.28125 698.128906 L 104.53125 698.128906 Z M 104.53125 654.378906 " fill-opacity="1" fill-rule="nonzero"/></g><g clip-path="url(#836d739292)"><path fill="#3a3a3a" d="M 104.53125 698.128906 L 148.28125 698.128906 L 148.28125 741.878906 L 104.53125 741.878906 Z M 104.53125 698.128906 " fill-opacity="1" fill-rule="nonzero"/></g><g clip-path="url(#39376fd209)"><path fill="#3a3a3a" d="M 104.53125 741.878906 L 148.28125 741.878906 L 148.28125 785.628906 L 104.53125 785.628906 Z M 104.53125 741.878906 " fill-opacity="1" fill-rule="nonzero"/></g><g clip-path="url(#749b140994)"><path fill="#3a3a3a" d="M 104.53125 785.628906 L 148.28125 785.628906 L 148.28125 829.378906 L 104.53125 829.378906 Z M 104.53125 785.628906 " fill-opacity="1" fill-rule="nonzero"/></g><path fill="#3a3a3a" d="M 148.28125 523.128906 L 192.03125 523.128906 L 192.03125 566.878906 L 148.28125 566.878906 Z M 148.28125 523.128906 " fill-opacity="1" fill-rule="nonzero"/><path fill="#3a3a3a" d="M 148.28125 566.878906 L 192.03125 566.878906 L 192.03125 610.628906 L 148.28125 610.628906 Z M 148.28125 566.878906 " fill-opacity="1" fill-rule="nonzero"/><path fill="#3a3a3a" d="M 673.28125 829.378906 L 717.03125 829.378906 L 717.03125 873.128906 L 673.28125 873.128906 Z M 673.28125 829.378906 " fill-opacity="1" fill-rule="nonzero"/><path fill="#3a3a3a" d="M 673.28125 873.128906 L 717.03125 873.128906 L 717.03125 916.878906 L 673.28125 916.878906 Z M 673.28125 873.128906 " fill-opacity="1" fill-rule="nonzero"/><path fill="#3a3a3a" d="M 148.28125 829.378906 L 192.03125 829.378906 L 192.03125 873.128906 L 148.28125 873.128906 Z M 148.28125 829.378906 " fill-opacity="1" fill-rule="nonzero"/><path fill="#3a3a3a" d="M 148.28125 873.128906 L 192.03125 873.128906 L 192.03125 916.878906 L 148.28125 916.878906 Z M 148.28125 873.128906 " fill-opacity="1" fill-rule="nonzero"/><path fill="#3a3a3a" d="M 235.78125 435.628906 L 279.53125 435.628906 L 279.53125 479.378906 L 235.78125 479.378906 Z M 235.78125 435.628906 " fill-opacity="1" fill-rule="nonzero"/><path fill="#3a3a3a" d="M 192.03125 479.378906 L 235.78125 479.378906 L 235.78125 523.128906 L 192.03125 523.128906 Z M 192.03125 479.378906 " fill-opacity="1" fill-rule="nonzero"/><path fill="#3a3a3a" d="M 629.53125 916.878906 L 673.28125 916.878906 L 673.28125 960.628906 L 629.53125 960.628906 Z M 629.53125 916.878906 " fill-opacity="1" fill-rule="nonzero"/><path fill="#3a3a3a" d="M 192.03125 916.878906 L 235.78125 916.878906 L 235.78125 960.628906 L 192.03125 960.628906 Z M 192.03125 916.878906 " fill-opacity="1" fill-rule="nonzero"/><path fill="#3a3a3a" d="M 279.53125 435.628906 L 323.28125 435.628906 L 323.28125 479.378906 L 279.53125 479.378906 Z M 279.53125 435.628906 " fill-opacity="1" fill-rule="nonzero"/><path fill="#3a3a3a" d="M 542.03125 960.628906 L 585.78125 960.628906 L 585.78125 1004.378906 L 542.03125 1004.378906 Z M 542.03125 960.628906 " fill-opacity="1" fill-rule="nonzero"/><path fill="#3a3a3a" d="M 585.78125 960.628906 L 629.53125 960.628906 L 629.53125 1004.378906 L 585.78125 1004.378906 Z M 585.78125 960.628906 " fill-opacity="1" fill-rule="nonzero"/><path fill="#3a3a3a" d="M 235.78125 960.628906 L 279.53125 960.628906 L 279.53125 1004.378906 L 235.78125 1004.378906 Z M 235.78125 960.628906 " fill-opacity="1" fill-rule="nonzero"/><path fill="#3a3a3a" d="M 279.53125 960.628906 L 323.28125 960.628906 L 323.28125 1004.378906 L 279.53125 1004.378906 Z M 279.53125 960.628906 " fill-opacity="1" fill-rule="nonzero"/><path fill="#3a3a3a" d="M 520.15625 698.234375 L 563.90625 698.234375 L 563.90625 741.984375 L 520.15625 741.984375 Z M 520.15625 698.234375 " fill-opacity="1" fill-rule="nonzero"/><path fill="#3a3a3a" d="M 476.40625 698.234375 L 520.15625 698.234375 L 520.15625 741.984375 L 476.40625 741.984375 Z M 476.40625 698.234375 " fill-opacity="1" fill-rule="nonzero"/><path fill="#3a3a3a" d="M 476.40625 741.984375 L 520.15625 741.984375 L 520.15625 785.734375 L 476.40625 785.734375 Z M 476.40625 741.984375 " fill-opacity="1" fill-rule="nonzero"/><path fill="#3a3a3a" d="M 432.65625 785.734375 L 476.40625 785.734375 L 476.40625 829.484375 L 432.65625 829.484375 Z M 432.65625 785.734375 " fill-opacity="1" fill-rule="nonzero"/><path fill="#3a3a3a" d="M 388.90625 829.484375 L 432.65625 829.484375 L 432.65625 873.234375 L 388.90625 873.234375 Z M 388.90625 829.484375 " fill-opacity="1" fill-rule="nonzero"/><path fill="#3a3a3a" d="M 432.65625 610.734375 L 476.40625 610.734375 L 476.40625 654.484375 L 432.65625 654.484375 Z M 432.65625 610.734375 " fill-opacity="1" fill-rule="nonzero"/><path fill="#3a3a3a" d="M 388.90625 566.984375 L 432.65625 566.984375 L 432.65625 610.734375 L 388.90625 610.734375 Z M 388.90625 566.984375 " fill-opacity="1" fill-rule="nonzero"/><path fill="#3a3a3a" d="M 476.40625 654.484375 L 520.15625 654.484375 L 520.15625 698.234375 L 476.40625 698.234375 Z M 476.40625 654.484375 " fill-opacity="1" fill-rule="nonzero"/><path fill="#3a3a3a" d="M 432.65625 698.234375 L 476.40625 698.234375 L 476.40625 741.984375 L 432.65625 741.984375 Z M 432.65625 698.234375 " fill-opacity="1" fill-rule="nonzero"/><path fill="#3a3a3a" d="M 432.65625 741.984375 L 476.40625 741.984375 L 476.40625 785.734375 L 432.65625 785.734375 Z M 432.65625 741.984375 " fill-opacity="1" fill-rule="nonzero"/><path fill="#3a3a3a" d="M 432.65625 654.484375 L 476.40625 654.484375 L 476.40625 698.234375 L 432.65625 698.234375 Z M 432.65625 654.484375 " fill-opacity="1" fill-rule="nonzero"/><path fill="#3a3a3a" d="M 388.90625 785.734375 L 432.65625 785.734375 L 432.65625 829.484375 L 388.90625 829.484375 Z M 388.90625 785.734375 " fill-opacity="1" fill-rule="nonzero"/><path fill="#3a3a3a" d="M 388.90625 610.734375 L 432.65625 610.734375 L 432.65625 654.484375 L 388.90625 654.484375 Z M 388.90625 610.734375 " fill-opacity="1" fill-rule="nonzero"/><path fill="#3a3a3a" d="M 388.90625 698.234375 L 432.65625 698.234375 L 432.65625 741.984375 L 388.90625 741.984375 Z M 388.90625 698.234375 " fill-opacity="1" fill-rule="nonzero"/><path fill="#3a3a3a" d="M 388.90625 741.984375 L 432.65625 741.984375 L 432.65625 785.734375 L 388.90625 785.734375 Z M 388.90625 741.984375 " fill-opacity="1" fill-rule="nonzero"/><path fill="#3a3a3a" d="M 388.90625 654.484375 L 432.65625 654.484375 L 432.65625 698.234375 L 388.90625 698.234375 Z M 388.90625 654.484375 " fill-opacity="1" fill-rule="nonzero"/></svg>