<svg xmlns="http://www.w3.org/2000/svg" xmlns:xlink="http://www.w3.org/1999/xlink" width="1080" zoomAndPan="magnify" viewBox="0 0 810 1439.999935" height="1920" preserveAspectRatio="xMidYMid meet" version="1.0"><defs><clipPath id="d6bb45d770"><path d="M 121 507 L 728.878906 507 L 728.878906 1115 L 121 1115 Z M 121 507 " clip-rule="nonzero"/></clipPath><clipPath id="588f216177"><path d="M 711 557 L 728.878906 557 L 728.878906 1065 L 711 1065 Z M 711 557 " clip-rule="nonzero"/></clipPath><clipPath id="4d51030f3f"><path d="M 171 1098 L 679 1098 L 679 1115.0625 L 171 1115.0625 Z M 171 1098 " clip-rule="nonzero"/></clipPath><clipPath id="f63fbb4e78"><path d="M 171 506.8125 L 679 506.8125 L 679 524 L 171 524 Z M 171 506.8125 " clip-rule="nonzero"/></clipPath><clipPath id="9f95b79ef6"><path d="M 120.628906 557 L 138 557 L 138 1065 L 120.628906 1065 Z M 120.628906 557 " clip-rule="nonzero"/></clipPath></defs><g clip-path="url(#d6bb45d770)"><path fill="#000000" d="M 171.992188 1114.386719 L 171.992188 1097.488281 L 155.097656 1097.488281 L 155.097656 1080.59375 L 138.199219 1080.59375 L 138.199219 1063.699219 L 121.304688 1063.699219 L 121.304688 558.175781 L 138.199219 558.175781 L 138.199219 541.277344 L 155.097656 541.277344 L 155.097656 524.382812 L 171.992188 524.382812 L 171.992188 507.488281 L 677.515625 507.488281 L 677.515625 524.382812 L 694.410156 524.382812 L 694.410156 541.277344 L 711.308594 541.277344 L 711.308594 558.175781 L 728.203125 558.175781 L 728.203125 1063.699219 L 711.308594 1063.699219 L 711.308594 1080.59375 L 694.410156 1080.59375 L 694.410156 1097.488281 L 677.515625 1097.488281 L 677.515625 1114.386719 Z M 171.992188 1114.386719 " fill-opacity="1" fill-rule="nonzero"/></g><path fill="#98a2a3" d="M 695.085938 557.5 L 695.085938 540.601562 L 678.191406 540.601562 L 678.191406 523.707031 L 171.316406 523.707031 L 171.316406 540.601562 L 154.421875 540.601562 L 154.421875 557.5 L 137.523438 557.5 L 137.523438 1064.375 L 154.421875 1064.375 L 154.421875 1081.269531 L 171.316406 1081.269531 L 171.316406 1098.164062 L 678.191406 1098.164062 L 678.191406 1081.269531 L 695.085938 1081.269531 L 695.085938 1064.375 L 711.984375 1064.375 L 711.984375 557.5 Z M 695.085938 557.5 " fill-opacity="1" fill-rule="nonzero"/><path fill="#4a5e66" d="M 695.085938 557.5 L 695.085938 540.601562 L 678.191406 540.601562 L 678.191406 523.707031 L 171.316406 523.707031 L 171.316406 540.601562 L 154.421875 540.601562 L 154.421875 557.5 L 137.523438 557.5 L 137.523438 1064.375 L 154.421875 1064.375 L 154.421875 1081.269531 L 171.316406 1081.269531 L 171.316406 1098.164062 L 678.191406 1098.164062 L 678.191406 1081.269531 L 695.085938 1081.269531 L 695.085938 1064.375 L 711.984375 1064.375 L 711.984375 557.5 Z M 678.191406 1030.582031 L 661.296875 1030.582031 L 661.296875 1047.476562 L 644.398438 1047.476562 L 644.398438 1064.375 L 205.109375 1064.375 L 205.109375 1047.476562 L 188.210938 1047.476562 L 188.210938 1030.582031 L 171.316406 1030.582031 L 171.316406 591.289062 L 188.210938 591.289062 L 188.210938 574.394531 L 205.109375 574.394531 L 205.109375 557.5 L 644.398438 557.5 L 644.398438 574.394531 L 661.296875 574.394531 L 661.296875 591.289062 L 678.191406 591.289062 Z M 678.191406 1030.582031 " fill-opacity="1" fill-rule="nonzero"/><g clip-path="url(#588f216177)"><path fill="#000000" d="M 711.984375 557.5 L 728.878906 557.5 L 728.878906 1064.375 L 711.984375 1064.375 Z M 711.984375 557.5 " fill-opacity="1" fill-rule="nonzero"/></g><path fill="#000000" d="M 695.085938 1064.375 L 711.984375 1064.375 L 711.984375 1081.269531 L 695.085938 1081.269531 Z M 695.085938 1064.375 " fill-opacity="1" fill-rule="nonzero"/><path fill="#000000" d="M 695.085938 540.601562 L 711.984375 540.601562 L 711.984375 557.5 L 695.085938 557.5 Z M 695.085938 540.601562 " fill-opacity="1" fill-rule="nonzero"/><path fill="#000000" d="M 678.191406 1081.269531 L 695.085938 1081.269531 L 695.085938 1098.164062 L 678.191406 1098.164062 Z M 678.191406 1081.269531 " fill-opacity="1" fill-rule="nonzero"/><path fill="#000000" d="M 678.191406 523.707031 L 695.085938 523.707031 L 695.085938 540.601562 L 678.191406 540.601562 Z M 678.191406 523.707031 " fill-opacity="1" fill-rule="nonzero"/><g clip-path="url(#4d51030f3f)"><path fill="#000000" d="M 171.316406 1098.164062 L 678.191406 1098.164062 L 678.191406 1115.0625 L 171.316406 1115.0625 Z M 171.316406 1098.164062 " fill-opacity="1" fill-rule="nonzero"/></g><g clip-path="url(#f63fbb4e78)"><path fill="#000000" d="M 171.316406 506.8125 L 678.191406 506.8125 L 678.191406 523.707031 L 171.316406 523.707031 Z M 171.316406 506.8125 " fill-opacity="1" fill-rule="nonzero"/></g><path fill="#000000" d="M 154.421875 1081.269531 L 171.316406 1081.269531 L 171.316406 1098.164062 L 154.421875 1098.164062 Z M 154.421875 1081.269531 " fill-opacity="1" fill-rule="nonzero"/><path fill="#000000" d="M 154.421875 523.707031 L 171.316406 523.707031 L 171.316406 540.601562 L 154.421875 540.601562 Z M 154.421875 523.707031 " fill-opacity="1" fill-rule="nonzero"/><path fill="#000000" d="M 137.523438 1064.375 L 154.421875 1064.375 L 154.421875 1081.269531 L 137.523438 1081.269531 Z M 137.523438 1064.375 " fill-opacity="1" fill-rule="nonzero"/><path fill="#000000" d="M 137.523438 540.601562 L 154.421875 540.601562 L 154.421875 557.5 L 137.523438 557.5 Z M 137.523438 540.601562 " fill-opacity="1" fill-rule="nonzero"/><g clip-path="url(#9f95b79ef6)"><path fill="#000000" d="M 120.628906 557.5 L 137.523438 557.5 L 137.523438 1064.375 L 120.628906 1064.375 Z M 120.628906 557.5 " fill-opacity="1" fill-rule="nonzero"/></g><path fill="#d8e6e8" d="M 222.511719 608.1875 L 205.613281 608.1875 L 205.613281 675.769531 L 222.511719 675.769531 L 222.511719 641.976562 L 239.40625 641.976562 L 239.40625 625.082031 L 256.300781 625.082031 L 256.300781 608.1875 L 340.78125 608.1875 L 340.78125 591.289062 L 222.511719 591.289062 Z M 222.511719 608.1875 " fill-opacity="1" fill-rule="nonzero"/><path fill="#d8e6e8" d="M 357.675781 591.289062 L 391.46875 591.289062 L 391.46875 608.1875 L 357.675781 608.1875 Z M 357.675781 591.289062 " fill-opacity="1" fill-rule="nonzero"/><path fill="#d8e6e8" d="M 205.613281 692.664062 L 222.511719 692.664062 L 222.511719 709.5625 L 205.613281 709.5625 Z M 205.613281 692.664062 " fill-opacity="1" fill-rule="nonzero"/><path fill="#000000" d="M 357.84375 996.113281 L 357.84375 979.21875 L 324.054688 979.21875 L 324.054688 962.324219 L 307.15625 962.324219 L 307.15625 945.425781 L 290.261719 945.425781 L 290.261719 928.53125 L 273.367188 928.53125 L 273.367188 894.738281 L 256.46875 894.738281 L 256.46875 760.925781 L 273.367188 760.925781 L 273.367188 727.132812 L 290.261719 727.132812 L 290.261719 710.238281 L 307.15625 710.238281 L 307.15625 693.339844 L 356.492188 693.339844 L 356.492188 710.238281 L 373.390625 710.238281 L 373.390625 759.574219 L 356.492188 759.574219 L 356.492188 776.46875 L 339.597656 776.46875 L 339.597656 879.195312 L 356.492188 879.195312 L 356.492188 896.089844 L 373.390625 896.089844 L 373.390625 912.988281 L 476.117188 912.988281 L 476.117188 896.089844 L 493.011719 896.089844 L 493.011719 879.195312 L 509.90625 879.195312 L 509.90625 776.46875 L 493.011719 776.46875 L 493.011719 759.574219 L 476.117188 759.574219 L 476.117188 710.238281 L 493.011719 710.238281 L 493.011719 693.339844 L 542.347656 693.339844 L 542.347656 710.238281 L 559.242188 710.238281 L 559.242188 727.132812 L 576.140625 727.132812 L 576.140625 760.925781 L 593.035156 760.925781 L 593.035156 894.738281 L 576.140625 894.738281 L 576.140625 928.53125 L 559.242188 928.53125 L 559.242188 945.425781 L 542.347656 945.425781 L 542.347656 962.324219 L 525.453125 962.324219 L 525.453125 979.21875 L 491.660156 979.21875 L 491.660156 996.113281 Z M 357.84375 996.113281 " fill-opacity="1" fill-rule="nonzero"/><path fill="#000000" d="M 408.53125 827.15625 L 408.53125 810.261719 L 391.636719 810.261719 L 391.636719 642.652344 L 408.53125 642.652344 L 408.53125 625.757812 L 440.972656 625.757812 L 440.972656 642.652344 L 457.867188 642.652344 L 457.867188 810.261719 L 440.972656 810.261719 L 440.972656 827.15625 Z M 408.53125 827.15625 " fill-opacity="1" fill-rule="nonzero"/><path fill="#ede2bf" d="M 559.917969 760.25 L 559.917969 726.457031 L 543.023438 726.457031 L 543.023438 709.5625 L 492.335938 709.5625 L 492.335938 760.25 L 509.230469 760.25 L 509.230469 777.144531 L 526.128906 777.144531 L 526.128906 878.519531 L 509.230469 878.519531 L 509.230469 895.414062 L 492.335938 895.414062 L 492.335938 912.3125 L 475.441406 912.3125 L 475.441406 929.207031 L 374.066406 929.207031 L 374.066406 912.3125 L 357.167969 912.3125 L 357.167969 895.414062 L 340.273438 895.414062 L 340.273438 878.519531 L 323.378906 878.519531 L 323.378906 777.144531 L 340.273438 777.144531 L 340.273438 760.25 L 357.167969 760.25 L 357.167969 709.5625 L 306.480469 709.5625 L 306.480469 726.457031 L 289.585938 726.457031 L 289.585938 760.25 L 272.691406 760.25 L 272.691406 895.414062 L 289.585938 895.414062 L 289.585938 929.207031 L 306.480469 929.207031 L 306.480469 946.101562 L 323.378906 946.101562 L 323.378906 963 L 357.167969 963 L 357.167969 979.894531 L 492.335938 979.894531 L 492.335938 963 L 526.128906 963 L 526.128906 946.101562 L 543.023438 946.101562 L 543.023438 929.207031 L 559.917969 929.207031 L 559.917969 895.414062 L 576.816406 895.414062 L 576.816406 760.25 Z M 559.917969 760.25 " fill-opacity="1" fill-rule="nonzero"/><path fill="#ede2bf" d="M 407.855469 641.976562 L 441.648438 641.976562 L 441.648438 810.9375 L 407.855469 810.9375 Z M 407.855469 641.976562 " fill-opacity="1" fill-rule="nonzero"/><path fill="#ffffff" d="M 407.855469 641.976562 L 407.855469 709.5625 L 424.753906 709.5625 L 424.753906 658.875 L 441.648438 658.875 L 441.648438 641.976562 Z M 407.855469 641.976562 " fill-opacity="1" fill-rule="nonzero"/><path fill="#ffffff" d="M 306.480469 709.5625 L 340.273438 709.5625 L 340.273438 726.457031 L 306.480469 726.457031 Z M 306.480469 709.5625 " fill-opacity="1" fill-rule="nonzero"/><path fill="#ffffff" d="M 289.585938 726.457031 L 306.480469 726.457031 L 306.480469 760.25 L 289.585938 760.25 Z M 289.585938 726.457031 " fill-opacity="1" fill-rule="nonzero"/><path fill="#ffffff" d="M 272.691406 760.25 L 289.585938 760.25 L 289.585938 810.9375 L 272.691406 810.9375 Z M 272.691406 760.25 " fill-opacity="1" fill-rule="nonzero"/><path fill="#4a5e66" d="M 593.710938 760.25 L 593.710938 895.414062 L 576.816406 895.414062 L 576.816406 929.207031 L 559.917969 929.207031 L 559.917969 946.101562 L 543.023438 946.101562 L 543.023438 963 L 526.128906 963 L 526.128906 979.894531 L 492.335938 979.894531 L 492.335938 996.789062 L 357.167969 996.789062 L 357.167969 1013.6875 L 526.128906 1013.6875 L 526.128906 996.789062 L 543.023438 996.789062 L 543.023438 979.894531 L 559.917969 979.894531 L 559.917969 963 L 576.816406 963 L 576.816406 946.101562 L 593.710938 946.101562 L 593.710938 912.3125 L 610.605469 912.3125 L 610.605469 760.25 Z M 593.710938 760.25 " fill-opacity="1" fill-rule="nonzero"/><path fill="#4a5e66" d="M 576.816406 726.457031 L 593.710938 726.457031 L 593.710938 760.25 L 576.816406 760.25 Z M 576.816406 726.457031 " fill-opacity="1" fill-rule="nonzero"/><path fill="#4a5e66" d="M 559.917969 709.5625 L 576.816406 709.5625 L 576.816406 726.457031 L 559.917969 726.457031 Z M 559.917969 709.5625 " fill-opacity="1" fill-rule="nonzero"/><path fill="#4a5e66" d="M 543.023438 692.664062 L 559.917969 692.664062 L 559.917969 709.5625 L 543.023438 709.5625 Z M 543.023438 692.664062 " fill-opacity="1" fill-rule="nonzero"/><path fill="#4a5e66" d="M 441.648438 625.082031 L 458.542969 625.082031 L 458.542969 641.976562 L 441.648438 641.976562 Z M 441.648438 625.082031 " fill-opacity="1" fill-rule="nonzero"/><path fill="#4a5e66" d="M 323.378906 979.894531 L 357.167969 979.894531 L 357.167969 996.789062 L 323.378906 996.789062 Z M 323.378906 979.894531 " fill-opacity="1" fill-rule="nonzero"/><path fill="#4a5e66" d="M 306.480469 963 L 323.378906 963 L 323.378906 979.894531 L 306.480469 979.894531 Z M 306.480469 963 " fill-opacity="1" fill-rule="nonzero"/><path fill="#4a5e66" d="M 289.585938 946.101562 L 306.480469 946.101562 L 306.480469 963 L 289.585938 963 Z M 289.585938 946.101562 " fill-opacity="1" fill-rule="nonzero"/><path fill="#4a5e66" d="M 272.691406 929.207031 L 289.585938 929.207031 L 289.585938 946.101562 L 272.691406 946.101562 Z M 272.691406 929.207031 " fill-opacity="1" fill-rule="nonzero"/><path fill="#4a5e66" d="M 255.792969 895.414062 L 272.691406 895.414062 L 272.691406 912.3125 L 255.792969 912.3125 Z M 255.792969 895.414062 " fill-opacity="1" fill-rule="nonzero"/><path fill="#4a5e66" d="M 458.542969 641.976562 L 458.542969 810.9375 L 390.960938 810.9375 L 390.960938 827.832031 L 407.855469 827.832031 L 407.855469 844.726562 L 458.542969 844.726562 L 458.542969 827.832031 L 475.441406 827.832031 L 475.441406 641.976562 Z M 458.542969 641.976562 " fill-opacity="1" fill-rule="nonzero"/><path fill="#000000" d="M 576.816406 760.25 L 593.710938 760.25 L 593.710938 895.414062 L 576.816406 895.414062 Z M 576.816406 760.25 " fill-opacity="1" fill-rule="nonzero"/><path fill="#000000" d="M 559.917969 895.414062 L 576.816406 895.414062 L 576.816406 929.207031 L 559.917969 929.207031 Z M 559.917969 895.414062 " fill-opacity="1" fill-rule="nonzero"/><path fill="#000000" d="M 559.917969 726.457031 L 576.816406 726.457031 L 576.816406 760.25 L 559.917969 760.25 Z M 559.917969 726.457031 " fill-opacity="1" fill-rule="nonzero"/><path fill="#000000" d="M 543.023438 929.207031 L 559.917969 929.207031 L 559.917969 946.101562 L 543.023438 946.101562 Z M 543.023438 929.207031 " fill-opacity="1" fill-rule="nonzero"/><path fill="#000000" d="M 543.023438 709.5625 L 559.917969 709.5625 L 559.917969 726.457031 L 543.023438 726.457031 Z M 543.023438 709.5625 " fill-opacity="1" fill-rule="nonzero"/><path fill="#000000" d="M 526.128906 946.101562 L 543.023438 946.101562 L 543.023438 963 L 526.128906 963 Z M 526.128906 946.101562 " fill-opacity="1" fill-rule="nonzero"/><path fill="#000000" d="M 509.230469 777.144531 L 526.128906 777.144531 L 526.128906 878.519531 L 509.230469 878.519531 Z M 509.230469 777.144531 " fill-opacity="1" fill-rule="nonzero"/><path fill="#000000" d="M 492.335938 692.664062 L 543.023438 692.664062 L 543.023438 709.5625 L 492.335938 709.5625 Z M 492.335938 692.664062 " fill-opacity="1" fill-rule="nonzero"/><path fill="#000000" d="M 492.335938 963 L 526.128906 963 L 526.128906 979.894531 L 492.335938 979.894531 Z M 492.335938 963 " fill-opacity="1" fill-rule="nonzero"/><path fill="#000000" d="M 492.335938 878.519531 L 509.230469 878.519531 L 509.230469 895.414062 L 492.335938 895.414062 Z M 492.335938 878.519531 " fill-opacity="1" fill-rule="nonzero"/><path fill="#000000" d="M 492.335938 760.25 L 509.230469 760.25 L 509.230469 777.144531 L 492.335938 777.144531 Z M 492.335938 760.25 " fill-opacity="1" fill-rule="nonzero"/><path fill="#000000" d="M 475.441406 895.414062 L 492.335938 895.414062 L 492.335938 912.3125 L 475.441406 912.3125 Z M 475.441406 895.414062 " fill-opacity="1" fill-rule="nonzero"/><path fill="#000000" d="M 475.441406 709.5625 L 492.335938 709.5625 L 492.335938 760.25 L 475.441406 760.25 Z M 475.441406 709.5625 " fill-opacity="1" fill-rule="nonzero"/><path fill="#000000" d="M 357.167969 979.894531 L 492.335938 979.894531 L 492.335938 996.789062 L 357.167969 996.789062 Z M 357.167969 979.894531 " fill-opacity="1" fill-rule="nonzero"/><path fill="#000000" d="M 441.648438 641.976562 L 458.542969 641.976562 L 458.542969 810.9375 L 441.648438 810.9375 Z M 441.648438 641.976562 " fill-opacity="1" fill-rule="nonzero"/><path fill="#000000" d="M 407.855469 625.082031 L 441.648438 625.082031 L 441.648438 641.976562 L 407.855469 641.976562 Z M 407.855469 625.082031 " fill-opacity="1" fill-rule="nonzero"/><path fill="#000000" d="M 407.855469 810.9375 L 441.648438 810.9375 L 441.648438 827.832031 L 407.855469 827.832031 Z M 407.855469 810.9375 " fill-opacity="1" fill-rule="nonzero"/><path fill="#000000" d="M 390.960938 641.976562 L 407.855469 641.976562 L 407.855469 810.9375 L 390.960938 810.9375 Z M 390.960938 641.976562 " fill-opacity="1" fill-rule="nonzero"/><path fill="#000000" d="M 374.066406 912.3125 L 475.441406 912.3125 L 475.441406 929.207031 L 374.066406 929.207031 Z M 374.066406 912.3125 " fill-opacity="1" fill-rule="nonzero"/><path fill="#000000" d="M 357.167969 895.414062 L 374.066406 895.414062 L 374.066406 912.3125 L 357.167969 912.3125 Z M 357.167969 895.414062 " fill-opacity="1" fill-rule="nonzero"/><path fill="#000000" d="M 357.167969 709.5625 L 374.066406 709.5625 L 374.066406 760.25 L 357.167969 760.25 Z M 357.167969 709.5625 " fill-opacity="1" fill-rule="nonzero"/><path fill="#000000" d="M 323.378906 963 L 357.167969 963 L 357.167969 979.894531 L 323.378906 979.894531 Z M 323.378906 963 " fill-opacity="1" fill-rule="nonzero"/><path fill="#000000" d="M 340.273438 878.519531 L 357.167969 878.519531 L 357.167969 895.414062 L 340.273438 895.414062 Z M 340.273438 878.519531 " fill-opacity="1" fill-rule="nonzero"/><path fill="#000000" d="M 340.273438 760.25 L 357.167969 760.25 L 357.167969 777.144531 L 340.273438 777.144531 Z M 340.273438 760.25 " fill-opacity="1" fill-rule="nonzero"/><path fill="#000000" d="M 323.378906 777.144531 L 340.273438 777.144531 L 340.273438 878.519531 L 323.378906 878.519531 Z M 323.378906 777.144531 " fill-opacity="1" fill-rule="nonzero"/><path fill="#000000" d="M 306.480469 692.664062 L 357.167969 692.664062 L 357.167969 709.5625 L 306.480469 709.5625 Z M 306.480469 692.664062 " fill-opacity="1" fill-rule="nonzero"/><path fill="#000000" d="M 306.480469 946.101562 L 323.378906 946.101562 L 323.378906 963 L 306.480469 963 Z M 306.480469 946.101562 " fill-opacity="1" fill-rule="nonzero"/><path fill="#000000" d="M 289.585938 929.207031 L 306.480469 929.207031 L 306.480469 946.101562 L 289.585938 946.101562 Z M 289.585938 929.207031 " fill-opacity="1" fill-rule="nonzero"/><path fill="#000000" d="M 289.585938 709.5625 L 306.480469 709.5625 L 306.480469 726.457031 L 289.585938 726.457031 Z M 289.585938 709.5625 " fill-opacity="1" fill-rule="nonzero"/><path fill="#000000" d="M 289.585938 895.414062 L 272.691406 895.414062 L 272.691406 929.207031 L 289.585938 929.207031 Z M 289.585938 895.414062 " fill-opacity="1" fill-rule="nonzero"/><path fill="#000000" d="M 272.691406 726.457031 L 289.585938 726.457031 L 289.585938 760.25 L 272.691406 760.25 Z M 272.691406 726.457031 " fill-opacity="1" fill-rule="nonzero"/><path fill="#000000" d="M 255.792969 760.25 L 272.691406 760.25 L 272.691406 895.414062 L 255.792969 895.414062 Z M 255.792969 760.25 " fill-opacity="1" fill-rule="nonzero"/></svg>